<svg width="320" height="72" viewBox="0 0 320 72" fill="none" xmlns="http://www.w3.org/2000/svg">
<g clip-path="url(#clip0_22_633)">
<path d="M0.0165573 12.8719C0.0165573 10.0424 0.893168 7.84547 2.63959 6.27428C4.39281 4.70309 6.6489 3.9209 9.41464 3.9209C12.1804 3.9209 14.6063 4.70309 16.3256 6.27428C18.0448 7.84547 18.9079 10.0424 18.9079 12.8719V52.1651C18.9079 53.335 19.2136 54.1444 19.832 54.6069C20.4436 55.0694 21.4561 54.8994 22.8696 54.0968C25.9411 52.3148 28.6729 50.8864 31.0717 49.805C33.4705 48.7303 36.1071 48.193 38.9951 48.193C42.9909 48.193 46.0012 49.2404 48.0263 51.3285C50.0513 53.4166 51.0638 56.1577 51.0638 59.5381C51.0638 63.1702 49.9698 65.9657 47.7952 67.9314C45.6139 69.8971 42.1278 70.8833 37.3371 70.8833H18.3506C14.2938 70.8833 10.9164 70.4072 8.21185 69.455C5.50727 68.5027 3.46864 66.7683 2.08237 64.2449C0.702896 61.7215 0.00976562 58.0622 0.00976562 53.267V12.8651L0.0165573 12.8719Z" fill="#AD83D9"/>
<path d="M54.0129 47.0912C54.0129 42.2349 54.9779 37.9634 56.9146 34.2701C58.8513 30.5836 61.617 27.6929 65.205 25.598C68.7998 23.5099 73.0809 22.4624 78.062 22.4624C81.9354 22.4624 85.4214 23.1698 88.5201 24.5845C91.6188 25.9993 94.0652 27.8901 95.8456 30.2571C97.626 32.6241 98.5162 35.2223 98.5162 38.0518C98.5162 40.8813 97.6532 43.0919 95.9339 44.323C94.2147 45.5541 91.6664 46.1662 88.2823 46.1662H68.9289C68.9289 47.7646 69.5609 49.0841 70.818 50.1316C72.0752 51.179 74.2157 51.7028 77.2261 51.7028C78.7619 51.7028 80.1889 51.5531 81.514 51.2403C82.8324 50.9342 84.1846 50.6417 85.5709 50.3628C86.9504 50.084 88.5065 49.9479 90.2258 49.9479C92.6857 49.9479 94.7108 50.8254 96.3077 52.5802C97.9046 54.335 98.6997 56.7496 98.6997 59.824C98.6997 63.4561 96.8377 66.2787 93.1274 68.3124C89.4103 70.3393 84.5448 71.3528 78.524 71.3528C74.2837 71.3528 70.3084 70.523 66.5913 68.8634C62.8742 67.2038 59.8502 64.5715 57.5126 60.9802C55.175 57.3822 54.0129 52.757 54.0129 47.098V47.0912ZM83.8721 43.1259C84.7962 43.1259 85.102 42.6974 84.7962 41.8336C84.5516 40.9765 83.8109 40.0787 82.5809 39.1605C81.3509 38.2355 79.5705 37.7798 77.2397 37.7798C74.5351 37.7798 72.5237 38.3647 71.2054 39.5346C69.8803 40.7045 69.2211 41.9016 69.2211 43.1327H83.8721V43.1259Z" fill="#AD83D9"/>
<path d="M102.485 47.0912C102.485 42.2349 103.45 37.9634 105.387 34.2701C107.323 30.5836 110.089 27.6929 113.677 25.598C117.272 23.5099 121.553 22.4624 126.534 22.4624C130.407 22.4624 133.893 23.1698 136.992 24.5845C140.091 25.9993 142.537 27.8901 144.318 30.2571C146.098 32.6241 146.988 35.2223 146.988 38.0518C146.988 40.8813 146.125 43.0919 144.406 44.323C142.687 45.5541 140.138 46.1662 136.754 46.1662H117.401C117.401 47.7646 118.033 49.0841 119.29 50.1316C120.547 51.179 122.688 51.7028 125.698 51.7028C127.234 51.7028 128.661 51.5531 129.986 51.2403C131.304 50.9342 132.657 50.6417 134.043 50.3628C135.422 50.084 136.978 49.9479 138.698 49.9479C141.158 49.9479 143.183 50.8254 144.78 52.5802C146.377 54.335 147.172 56.7496 147.172 59.824C147.172 63.4561 145.31 66.2787 141.599 68.3124C137.882 70.3393 133.017 71.3528 126.996 71.3528C122.756 71.3528 118.78 70.523 115.063 68.8634C111.346 67.2038 108.322 64.5715 105.985 60.9802C103.647 57.3822 102.485 52.757 102.485 47.098V47.0912ZM132.344 43.1259C133.268 43.1259 133.574 42.6974 133.268 41.8336C133.024 40.9765 132.283 40.0787 131.053 39.1605C129.823 38.2355 128.042 37.7798 125.712 37.7798C123.007 37.7798 120.996 38.3647 119.677 39.5346C118.352 40.7045 117.693 41.9016 117.693 43.1327H132.344V43.1259Z" fill="#AD83D9"/>
<path d="M159.988 71.0738C156.978 71.0738 154.721 70.278 153.213 68.6728C151.704 67.0744 150.957 65.0748 150.957 62.6806V9.18546C150.957 6.53961 151.711 4.34268 153.213 2.58785C154.721 0.833016 156.978 -0.0375977 159.988 -0.0375977C162.692 -0.0375977 164.779 0.839818 166.253 2.58785C167.728 4.34268 168.469 6.4784 168.469 8.99502V62.6738C168.469 65.0748 167.728 67.0745 166.253 68.666C164.779 70.2644 162.692 71.067 159.988 71.067V71.0738Z" fill="#AD83D9"/>
<path d="M186.707 71.0745C182.161 71.0745 178.614 69.8434 176.066 67.388C173.517 64.9258 172.24 61.4841 172.24 57.0562C172.24 52.6283 173.714 49.418 176.664 47.4183C179.613 45.4186 183.391 44.4187 187.998 44.4187C190.703 44.4187 193.156 44.6024 195.371 44.9697C197.58 45.337 199.578 45.8607 201.358 46.5409H201.637V45.1601C201.637 43.7454 201.114 42.6231 200.067 41.7933C199.021 40.9635 197.702 40.5826 196.105 40.6438C194.57 40.6438 193.265 40.739 192.191 40.9227C191.117 41.1063 189.779 41.4124 188.182 41.8477C185.233 42.5823 182.684 42.5279 180.53 41.6641C178.376 40.8071 176.901 39.1134 176.106 36.59C175.372 33.9442 175.536 31.7336 176.616 29.9516C177.69 28.1696 179.334 26.7888 181.543 25.8026C183.445 24.8775 185.579 24.109 187.944 23.4968C190.309 22.8847 192.877 22.5718 195.636 22.5718C203.682 22.5718 209.594 24.5239 213.372 28.428C217.151 32.3322 219.04 38.8686 219.04 48.0304V62.3275C219.04 64.8509 218.272 66.939 216.736 68.5987C215.2 70.2583 213.08 71.0881 210.376 71.0881C207.426 71.0881 205.232 70.2583 203.791 68.5987C202.343 66.939 201.623 64.9122 201.623 62.5112V60.389H199.782C199.782 61.9874 199.489 63.6198 198.905 65.2794C198.321 66.9391 197.125 68.3198 195.31 69.4285C193.496 70.5371 190.621 71.0881 186.694 71.0881L186.707 71.0745ZM187.631 50.8735C187.631 51.921 188.012 52.6556 188.787 53.0909C189.555 53.5194 191.226 53.737 193.808 53.737C196.139 53.737 197.77 53.5194 198.694 53.0909C199.619 52.6624 200.074 51.921 200.074 50.8735C200.074 49.8941 199.612 49.2003 198.694 48.799C197.77 48.3977 196.146 48.2005 193.808 48.2005C191.226 48.2005 189.555 48.3977 188.787 48.799C188.019 49.2003 187.631 49.8941 187.631 50.8735Z" fill="#AD83D9"/>
<path d="M238.591 71.0739C234.289 71.0739 230.79 69.4483 228.085 66.1835C225.38 62.9255 224.001 58.3411 223.94 52.4441L223.845 31.1345C223.845 28.4886 224.66 26.4141 226.284 24.911C227.908 23.4078 230.137 22.6528 232.964 22.6528C235.791 22.6528 237.85 23.4078 239.508 24.911C241.166 26.4209 241.995 28.4954 241.995 31.1345V50.4104C241.995 55.0219 243.81 57.3277 247.432 57.3277C249.212 57.3277 250.408 56.6679 251.026 55.3416C251.638 54.0221 251.951 52.3149 251.951 50.22V31.1277C251.951 28.7267 252.78 26.7202 254.438 25.0878C256.096 23.4622 258.243 22.646 260.887 22.646C263.53 22.646 265.786 23.4622 267.295 25.0878C268.796 26.7202 269.551 28.7335 269.551 31.1277V61.3815C269.551 64.3334 268.892 66.6868 267.567 68.4348C266.241 70.1897 264.114 71.0671 261.165 71.0671C258.216 71.0671 256.021 70.1897 254.39 68.4348C252.759 66.68 251.951 64.3334 251.951 61.3815V59.8103H250.293C250.293 63.3744 249.232 66.1427 247.112 68.1083C244.992 70.074 242.152 71.0603 238.591 71.0603V71.0739Z" fill="#AD83D9"/>
<path d="M289.088 71.0739C284.786 71.0739 281.286 69.4483 278.582 66.1835C275.877 62.9255 274.498 58.3411 274.437 52.4441L274.342 31.1345C274.342 28.4886 275.157 26.4141 276.781 24.911C278.405 23.4078 280.634 22.6528 283.461 22.6528C286.288 22.6528 288.347 23.4078 290.005 24.911C291.663 26.4209 292.492 28.4954 292.492 31.1345V50.4104C292.492 55.0219 294.307 57.3277 297.928 57.3277C299.709 57.3277 300.905 56.6679 301.523 55.3416C302.135 54.0221 302.447 52.3149 302.447 50.22V31.1277C302.447 28.7267 303.277 26.7202 304.935 25.0878C306.593 23.4622 308.74 22.646 311.383 22.646C314.027 22.646 316.283 23.4622 317.792 25.0878C319.293 26.7202 320.048 28.7335 320.048 31.1277V61.3815C320.048 64.3334 319.388 66.6868 318.063 68.4348C316.738 70.1897 314.611 71.0671 311.662 71.0671C308.713 71.0671 306.518 70.1897 304.887 68.4348C303.256 66.68 302.447 64.3334 302.447 61.3815V59.8103H300.789C300.789 63.3744 299.729 66.1427 297.609 68.1083C295.489 70.074 292.648 71.0603 289.088 71.0603V71.0739Z" fill="#AD83D9"/>
</g>
<defs>
<clipPath id="clip0_22_633">
<rect width="320" height="71.1902" fill="white"/>
</clipPath>
</defs>
</svg>
