<svg width="320" height="72" viewBox="0 0 320 72" fill="none" xmlns="http://www.w3.org/2000/svg">
<g clip-path="url(#clip0_22_984)">
<path d="M0.0165573 12.8719C0.0165573 10.0424 0.893168 7.84547 2.63959 6.27428C4.39281 4.70309 6.6489 3.9209 9.41464 3.9209C12.1804 3.9209 14.6063 4.70309 16.3256 6.27428C18.0448 7.84547 18.9079 10.0424 18.9079 12.8719V52.1651C18.9079 53.335 19.2136 54.1444 19.832 54.6069C20.4436 55.0694 21.4561 54.8994 22.8696 54.0968C25.9411 52.3148 28.6729 50.8864 31.0717 49.805C33.4705 48.7303 36.1071 48.193 38.9951 48.193C42.9909 48.193 46.0012 49.2404 48.0263 51.3285C50.0513 53.4166 51.0638 56.1577 51.0638 59.5381C51.0638 63.1702 49.9698 65.9657 47.7952 67.9314C45.6139 69.8971 42.1278 70.8833 37.3371 70.8833H18.3506C14.2938 70.8833 10.9164 70.4072 8.21185 69.455C5.50727 68.5027 3.46864 66.7683 2.08237 64.2449C0.702896 61.7215 0.00976562 58.0622 0.00976562 53.267V12.8651L0.0165573 12.8719Z" fill="white"/>
<path d="M54.0129 47.0917C54.0129 42.2353 54.9779 37.9639 56.9146 34.2706C58.8513 30.5841 61.617 27.6934 65.205 25.5985C68.7998 23.5103 73.0809 22.4629 78.062 22.4629C81.9354 22.4629 85.4214 23.1703 88.5201 24.585C91.6188 25.9998 94.0652 27.8906 95.8456 30.2576C97.626 32.6246 98.5162 35.2228 98.5162 38.0523C98.5162 40.8818 97.6532 43.0924 95.9339 44.3235C94.2147 45.5546 91.6664 46.1667 88.2823 46.1667H68.9289C68.9289 47.7651 69.5609 49.0846 70.818 50.1321C72.0752 51.1795 74.2157 51.7033 77.2261 51.7033C78.7619 51.7033 80.1889 51.5536 81.514 51.2408C82.8324 50.9347 84.1846 50.6422 85.5709 50.3633C86.9504 50.0845 88.5065 49.9484 90.2258 49.9484C92.6857 49.9484 94.7108 50.8258 96.3077 52.5807C97.9046 54.3355 98.6997 56.7501 98.6997 59.8245C98.6997 63.4565 96.8377 66.2792 93.1274 68.3129C89.4103 70.3398 84.5448 71.3533 78.524 71.3533C74.2837 71.3533 70.3084 70.5235 66.5913 68.8639C62.8742 67.2043 59.8502 64.572 57.5126 60.9807C55.175 57.3827 54.0129 52.7575 54.0129 47.0985V47.0917ZM83.8721 43.1264C84.7962 43.1264 85.102 42.6979 84.7962 41.834C84.5516 40.977 83.8109 40.0792 82.5809 39.161C81.3509 38.236 79.5705 37.7802 77.2397 37.7802C74.5351 37.7802 72.5237 38.3652 71.2054 39.5351C69.8803 40.705 69.2211 41.9021 69.2211 43.1332H83.8721V43.1264Z" fill="white"/>
<path d="M102.485 47.0917C102.485 42.2353 103.45 37.9639 105.387 34.2706C107.323 30.5841 110.089 27.6934 113.677 25.5985C117.272 23.5103 121.553 22.4629 126.534 22.4629C130.407 22.4629 133.893 23.1703 136.992 24.585C140.091 25.9998 142.537 27.8906 144.318 30.2576C146.098 32.6246 146.988 35.2228 146.988 38.0523C146.988 40.8818 146.125 43.0924 144.406 44.3235C142.687 45.5546 140.138 46.1667 136.754 46.1667H117.401C117.401 47.7651 118.033 49.0846 119.29 50.1321C120.547 51.1795 122.688 51.7033 125.698 51.7033C127.234 51.7033 128.661 51.5536 129.986 51.2408C131.304 50.9347 132.657 50.6422 134.043 50.3633C135.422 50.0845 136.978 49.9484 138.698 49.9484C141.158 49.9484 143.183 50.8258 144.78 52.5807C146.377 54.3355 147.172 56.7501 147.172 59.8245C147.172 63.4565 145.31 66.2792 141.599 68.3129C137.882 70.3398 133.017 71.3533 126.996 71.3533C122.756 71.3533 118.78 70.5235 115.063 68.8639C111.346 67.2043 108.322 64.572 105.985 60.9807C103.647 57.3827 102.485 52.7575 102.485 47.0985V47.0917ZM132.344 43.1264C133.268 43.1264 133.574 42.6979 133.268 41.834C133.024 40.977 132.283 40.0792 131.053 39.161C129.823 38.236 128.042 37.7802 125.712 37.7802C123.007 37.7802 120.996 38.3652 119.677 39.5351C118.352 40.705 117.693 41.9021 117.693 43.1332H132.344V43.1264Z" fill="white"/>
<path d="M159.988 71.0743C156.978 71.0743 154.721 70.2785 153.213 68.6733C151.704 67.0749 150.957 65.0752 150.957 62.6811V9.18595C150.957 6.5401 151.711 4.34316 153.213 2.58833C154.721 0.833505 156.978 -0.0371094 159.988 -0.0371094C162.692 -0.0371094 164.779 0.840306 166.253 2.58833C167.728 4.34316 168.469 6.47889 168.469 8.9955V62.6743C168.469 65.0753 167.728 67.0749 166.253 68.6665C164.779 70.2649 162.692 71.0675 159.988 71.0675V71.0743Z" fill="white"/>
<path d="M186.707 71.074C182.161 71.074 178.614 69.8429 176.066 67.3875C173.517 64.9253 172.24 61.4836 172.24 57.0557C172.24 52.6279 173.714 49.4175 176.664 47.4178C179.613 45.4181 183.391 44.4182 187.998 44.4182C190.703 44.4182 193.156 44.6019 195.371 44.9692C197.58 45.3365 199.578 45.8602 201.358 46.5404H201.637V45.1596C201.637 43.7449 201.114 42.6226 200.067 41.7928C199.021 40.963 197.702 40.5821 196.105 40.6433C194.57 40.6433 193.265 40.7385 192.191 40.9222C191.117 41.1058 189.779 41.4119 188.182 41.8472C185.233 42.5818 182.684 42.5274 180.53 41.6636C178.376 40.8066 176.901 39.1129 176.106 36.5895C175.372 33.9437 175.536 31.7331 176.616 29.9511C177.69 28.1691 179.334 26.7883 181.543 25.8021C183.445 24.8771 185.579 24.1085 187.944 23.4963C190.309 22.8842 192.877 22.5713 195.636 22.5713C203.682 22.5713 209.594 24.5234 213.372 28.4275C217.151 32.3317 219.04 38.8681 219.04 48.0299V62.327C219.04 64.8504 218.272 66.9386 216.736 68.5982C215.2 70.2578 213.08 71.0876 210.376 71.0876C207.426 71.0876 205.232 70.2578 203.791 68.5982C202.343 66.9386 201.623 64.9117 201.623 62.5107V60.3886H199.782C199.782 61.9869 199.489 63.6194 198.905 65.279C198.321 66.9386 197.125 68.3193 195.31 69.428C193.496 70.5367 190.621 71.0876 186.694 71.0876L186.707 71.074ZM187.631 50.873C187.631 51.9205 188.012 52.6551 188.787 53.0904C189.555 53.5189 191.226 53.7365 193.808 53.7365C196.139 53.7365 197.77 53.5189 198.694 53.0904C199.619 52.6619 200.074 51.9205 200.074 50.873C200.074 49.8936 199.612 49.1998 198.694 48.7985C197.77 48.3972 196.146 48.2 193.808 48.2C191.226 48.2 189.555 48.3972 188.787 48.7985C188.019 49.1998 187.631 49.8936 187.631 50.873Z" fill="white"/>
<path d="M238.591 71.0744C234.289 71.0744 230.79 69.4488 228.085 66.184C225.38 62.926 224.001 58.3416 223.94 52.4446L223.845 31.135C223.845 28.4891 224.66 26.4146 226.284 24.9114C227.908 23.4083 230.137 22.6533 232.964 22.6533C235.791 22.6533 237.85 23.4083 239.508 24.9114C241.166 26.4214 241.995 28.4959 241.995 31.135V50.4109C241.995 55.0224 243.81 57.3282 247.432 57.3282C249.212 57.3282 250.408 56.6684 251.026 55.3421C251.638 54.0226 251.951 52.3154 251.951 50.2204V31.1282C251.951 28.7272 252.78 26.7207 254.438 25.0883C256.096 23.4627 258.243 22.6465 260.887 22.6465C263.53 22.6465 265.786 23.4627 267.295 25.0883C268.796 26.7207 269.551 28.734 269.551 31.1282V61.382C269.551 64.3339 268.892 66.6873 267.567 68.4353C266.241 70.1901 264.114 71.0676 261.165 71.0676C258.216 71.0676 256.021 70.1901 254.39 68.4353C252.759 66.6805 251.951 64.3339 251.951 61.382V59.8108H250.293C250.293 63.3749 249.232 66.1431 247.112 68.1088C244.992 70.0745 242.152 71.0608 238.591 71.0608V71.0744Z" fill="white"/>
<path d="M289.088 71.0744C284.786 71.0744 281.286 69.4488 278.582 66.184C275.877 62.926 274.498 58.3416 274.437 52.4446L274.342 31.135C274.342 28.4891 275.157 26.4146 276.781 24.9114C278.405 23.4083 280.634 22.6533 283.461 22.6533C286.288 22.6533 288.347 23.4083 290.005 24.9114C291.663 26.4214 292.492 28.4959 292.492 31.135V50.4109C292.492 55.0224 294.307 57.3282 297.928 57.3282C299.709 57.3282 300.905 56.6684 301.523 55.3421C302.135 54.0226 302.447 52.3154 302.447 50.2204V31.1282C302.447 28.7272 303.277 26.7207 304.935 25.0883C306.593 23.4627 308.74 22.6465 311.383 22.6465C314.027 22.6465 316.283 23.4627 317.792 25.0883C319.293 26.7207 320.048 28.734 320.048 31.1282V61.382C320.048 64.3339 319.388 66.6873 318.063 68.4353C316.738 70.1901 314.611 71.0676 311.662 71.0676C308.713 71.0676 306.518 70.1901 304.887 68.4353C303.256 66.6805 302.447 64.3339 302.447 61.382V59.8108H300.789C300.789 63.3749 299.729 66.1431 297.609 68.1088C295.489 70.0745 292.648 71.0608 289.088 71.0608V71.0744Z" fill="white"/>
</g>
<defs>
<clipPath id="clip0_22_984">
<rect width="320" height="71.1902" fill="white"/>
</clipPath>
</defs>
</svg>
