<svg width="292" height="285" viewBox="0 0 292 285" fill="none" xmlns="http://www.w3.org/2000/svg">
<path d="M173.992 120.301H152.618C153.328 118.558 153.748 116.62 153.748 114.619C153.748 106.579 147.258 100.09 139.219 100.09C131.18 100.09 124.69 106.579 124.69 114.619C124.69 116.62 125.11 118.558 125.82 120.301H88.5938V120.107C88.6906 113.004 92.5327 106.063 100.12 99.3471C107.837 92.5346 119.556 89.1445 135.312 89.1445C140.188 89.1445 144.643 89.4997 148.679 90.1777C155.911 91.4046 161.82 93.7293 166.469 97.1839C173.636 102.576 177.898 107.774 179.351 112.778C181.159 117.783 179.351 120.301 173.992 120.301Z" fill="white"/>
<path d="M153.749 114.617C153.749 116.619 153.329 118.556 152.619 120.299C150.391 125.497 145.225 129.146 139.22 129.146C133.215 129.146 128.049 125.497 125.821 120.299C125.111 118.556 124.691 116.619 124.691 114.617C124.691 106.577 131.181 100.088 139.22 100.088C147.259 100.088 153.749 106.577 153.749 114.617Z" fill="black"/>
<path d="M260.294 114.617C260.294 116.554 259.907 118.427 259.229 120.106H232.302C231.624 118.427 231.236 116.554 231.236 114.617C231.236 106.577 237.726 100.088 245.765 100.088C253.805 100.088 260.294 106.577 260.294 114.617Z" fill="white" stroke="#F39C93" stroke-width="3.22865" stroke-miterlimit="10"/>
<path d="M260.294 114.617C260.294 116.554 259.907 118.427 259.229 120.106C257.066 125.433 251.867 129.146 245.765 129.146C239.663 129.146 234.465 125.433 232.302 120.106C231.624 118.427 231.236 116.554 231.236 114.617C231.236 106.577 237.726 100.088 245.765 100.088C253.805 100.088 260.294 106.577 260.294 114.617Z" fill="black"/>
<path d="M265.557 120.106H200.596C200.596 112.938 204.406 105.932 212.09 99.1519C219.807 92.3395 231.527 88.9494 247.282 88.9494C252.416 88.9494 257.033 89.3046 261.263 90.0472C258.97 79.3281 255.935 69.4483 251.996 60.957C249.607 55.5006 246.475 50.2701 242.666 45.2011C232.302 31.3825 218.063 20.4051 199.983 12.172C190.943 8.03931 181.354 4.97217 171.183 2.87355C169.02 2.45382 166.824 2.03405 164.597 1.71118C156.751 0.61344 148.583 0 140.156 0C111.162 0 86.1728 6.06985 65.2512 18.2419C44.2972 30.4462 28.1861 47.2675 16.9181 68.7381C5.61783 90.2086 0 115.101 0 143.352C0 176.317 6.78016 203.244 20.3728 224.198C33.9977 245.152 51.6262 260.423 73.2905 270.109C84.1388 274.92 95.3421 278.568 106.933 280.957C109.451 281.539 112.002 281.958 114.553 282.378C123.399 283.734 132.439 284.412 141.706 284.412C176.801 284.412 205.149 278.504 226.813 266.687C242.956 257.873 253.126 246.508 257.194 232.495C264.717 205.246 269.044 160.529 265.557 120.106ZM88.5943 120.3V120.106C88.6911 113.003 92.5332 106.061 100.121 99.3456C107.837 92.5332 119.557 89.1431 135.313 89.1431C140.188 89.1431 144.644 89.4983 148.679 90.1763C155.912 91.4032 161.82 93.7278 166.469 97.1825C173.637 102.574 177.899 107.772 179.352 112.777C181.16 117.781 179.352 120.3 173.992 120.3H88.5943Z" fill="#F39C93"/>
<path d="M285.961 120.106H259.228C259.906 118.427 260.293 116.554 260.293 114.617C260.293 106.578 253.804 100.088 245.765 100.088C237.725 100.088 231.236 106.578 231.236 114.617C231.236 116.554 231.623 118.427 232.301 120.106H200.596C200.596 112.938 204.406 105.932 212.09 99.1518C219.806 92.3393 231.526 88.9492 247.282 88.9492C252.415 88.9492 257.032 89.3045 261.262 90.047C268.236 91.3385 273.951 93.6308 278.438 96.9886C285.606 102.38 289.868 107.579 291.321 112.583C293.129 117.587 291.321 120.106 285.961 120.106Z" fill="white"/>
<path d="M222.099 163.272C222.099 168.212 219.936 171.667 215.61 173.701C211.283 175.703 203.599 176.736 192.622 176.736C180.482 176.736 172.604 175.703 168.988 173.701C165.372 171.667 163.564 168.212 163.564 163.272C163.564 158.655 165.372 155.427 168.988 153.522C172.604 151.649 180.482 150.713 192.622 150.713C203.599 150.713 211.283 151.649 215.61 153.522C219.936 155.427 222.099 158.655 222.099 163.272Z" fill="white"/>
</svg>
